<mxfile host="65bd71144e">
    <diagram name="Page-1" id="_to7ITvS1LxcgbfXqIIn">
        <mxGraphModel dx="649" dy="490" grid="1" gridSize="10" guides="1" tooltips="1" connect="1" arrows="1" fold="1" page="1" pageScale="1" pageWidth="850" pageHeight="1100" math="0" shadow="0">
            <root>
                <mxCell id="0"/>
                <mxCell id="1" parent="0"/>
                <mxCell id="FmNaZ-GWL36y1u5ZB01I-8" value="" style="edgeStyle=orthogonalEdgeStyle;rounded=0;orthogonalLoop=1;jettySize=auto;html=1;entryX=0.5;entryY=0;entryDx=0;entryDy=0;" parent="1" source="FmNaZ-GWL36y1u5ZB01I-1" target="FmNaZ-GWL36y1u5ZB01I-3" edge="1">
                    <mxGeometry relative="1" as="geometry">
                        <mxPoint x="412.52" y="190" as="targetPoint"/>
                    </mxGeometry>
                </mxCell>
                <mxCell id="FmNaZ-GWL36y1u5ZB01I-1" value="เริ่มต้น" style="ellipse;whiteSpace=wrap;html=1;" parent="1" vertex="1">
                    <mxGeometry x="365.02" y="100" width="95" height="50" as="geometry"/>
                </mxCell>
                <mxCell id="FmNaZ-GWL36y1u5ZB01I-10" value="" style="edgeStyle=orthogonalEdgeStyle;rounded=0;orthogonalLoop=1;jettySize=auto;html=1;" parent="1" source="FmNaZ-GWL36y1u5ZB01I-3" target="FmNaZ-GWL36y1u5ZB01I-4" edge="1">
                    <mxGeometry relative="1" as="geometry"/>
                </mxCell>
                <mxCell id="FmNaZ-GWL36y1u5ZB01I-3" value="&amp;nbsp;First Name:" style="shape=parallelogram;perimeter=parallelogramPerimeter;whiteSpace=wrap;html=1;fixedSize=1;" parent="1" vertex="1">
                    <mxGeometry x="341.88" y="200" width="141.25" height="50" as="geometry"/>
                </mxCell>
                <mxCell id="FmNaZ-GWL36y1u5ZB01I-4" value="ป้อนชื่อ" style="rhombus;whiteSpace=wrap;html=1;" parent="1" vertex="1">
                    <mxGeometry x="372.51" y="310" width="80" height="80" as="geometry"/>
                </mxCell>
                <mxCell id="FmNaZ-GWL36y1u5ZB01I-35" value="" style="edgeStyle=orthogonalEdgeStyle;rounded=0;orthogonalLoop=1;jettySize=auto;html=1;" parent="1" source="FmNaZ-GWL36y1u5ZB01I-13" target="FmNaZ-GWL36y1u5ZB01I-34" edge="1">
                    <mxGeometry relative="1" as="geometry"/>
                </mxCell>
                <mxCell id="FmNaZ-GWL36y1u5ZB01I-13" value="&amp;nbsp;Last Name:" style="shape=parallelogram;perimeter=parallelogramPerimeter;whiteSpace=wrap;html=1;fixedSize=1;" parent="1" vertex="1">
                    <mxGeometry x="343.64" y="470" width="137.49" height="50" as="geometry"/>
                </mxCell>
                <mxCell id="FmNaZ-GWL36y1u5ZB01I-28" value="" style="endArrow=classic;html=1;rounded=0;exitX=0.5;exitY=1;exitDx=0;exitDy=0;" parent="1" source="FmNaZ-GWL36y1u5ZB01I-4" target="FmNaZ-GWL36y1u5ZB01I-13" edge="1">
                    <mxGeometry relative="1" as="geometry">
                        <mxPoint x="380" y="460" as="sourcePoint"/>
                        <mxPoint x="413" y="460" as="targetPoint"/>
                    </mxGeometry>
                </mxCell>
                <mxCell id="FmNaZ-GWL36y1u5ZB01I-29" value="Yes" style="edgeLabel;resizable=0;html=1;;align=center;verticalAlign=middle;" parent="FmNaZ-GWL36y1u5ZB01I-28" connectable="0" vertex="1">
                    <mxGeometry relative="1" as="geometry"/>
                </mxCell>
                <mxCell id="FmNaZ-GWL36y1u5ZB01I-30" value="" style="endArrow=classic;html=1;rounded=0;entryX=1;entryY=0.5;entryDx=0;entryDy=0;" parent="1" target="FmNaZ-GWL36y1u5ZB01I-3" edge="1">
                    <mxGeometry relative="1" as="geometry">
                        <mxPoint x="452.51" y="349.58" as="sourcePoint"/>
                        <mxPoint x="610" y="320" as="targetPoint"/>
                        <Array as="points">
                            <mxPoint x="610" y="350"/>
                            <mxPoint x="610" y="225"/>
                        </Array>
                    </mxGeometry>
                </mxCell>
                <mxCell id="FmNaZ-GWL36y1u5ZB01I-31" value="NO" style="edgeLabel;resizable=0;html=1;;align=center;verticalAlign=middle;" parent="FmNaZ-GWL36y1u5ZB01I-30" connectable="0" vertex="1">
                    <mxGeometry relative="1" as="geometry"/>
                </mxCell>
                <mxCell id="FmNaZ-GWL36y1u5ZB01I-34" value="ป้อนนามสกุล" style="rhombus;whiteSpace=wrap;html=1;" parent="1" vertex="1">
                    <mxGeometry x="372.51" y="590" width="80" height="80" as="geometry"/>
                </mxCell>
                <mxCell id="FmNaZ-GWL36y1u5ZB01I-36" value="" style="endArrow=classic;html=1;rounded=0;exitX=0.5;exitY=1;exitDx=0;exitDy=0;" parent="1" source="FmNaZ-GWL36y1u5ZB01I-34" edge="1">
                    <mxGeometry relative="1" as="geometry">
                        <mxPoint x="400" y="700" as="sourcePoint"/>
                        <mxPoint x="413" y="760" as="targetPoint"/>
                    </mxGeometry>
                </mxCell>
                <mxCell id="FmNaZ-GWL36y1u5ZB01I-37" value="YES" style="edgeLabel;resizable=0;html=1;;align=center;verticalAlign=middle;" parent="FmNaZ-GWL36y1u5ZB01I-36" connectable="0" vertex="1">
                    <mxGeometry relative="1" as="geometry"/>
                </mxCell>
                <mxCell id="FmNaZ-GWL36y1u5ZB01I-39" value="" style="endArrow=classic;html=1;rounded=0;entryX=1;entryY=0.5;entryDx=0;entryDy=0;" parent="1" target="FmNaZ-GWL36y1u5ZB01I-13" edge="1">
                    <mxGeometry relative="1" as="geometry">
                        <mxPoint x="452.51" y="629.58" as="sourcePoint"/>
                        <mxPoint x="560" y="630" as="targetPoint"/>
                        <Array as="points">
                            <mxPoint x="620" y="630"/>
                            <mxPoint x="620" y="495"/>
                        </Array>
                    </mxGeometry>
                </mxCell>
                <mxCell id="FmNaZ-GWL36y1u5ZB01I-40" value="NO" style="edgeLabel;resizable=0;html=1;;align=center;verticalAlign=middle;" parent="FmNaZ-GWL36y1u5ZB01I-39" connectable="0" vertex="1">
                    <mxGeometry relative="1" as="geometry"/>
                </mxCell>
                <mxCell id="FmNaZ-GWL36y1u5ZB01I-45" value="" style="edgeStyle=orthogonalEdgeStyle;rounded=0;orthogonalLoop=1;jettySize=auto;html=1;" parent="1" source="FmNaZ-GWL36y1u5ZB01I-43" target="FmNaZ-GWL36y1u5ZB01I-44" edge="1">
                    <mxGeometry relative="1" as="geometry"/>
                </mxCell>
                <mxCell id="FmNaZ-GWL36y1u5ZB01I-43" value="&amp;nbsp;ชื่อและนามสกุลที่ป้อนมา TC, RMUTL, Chiang Mai, Thailand" style="shape=parallelogram;perimeter=parallelogramPerimeter;whiteSpace=wrap;html=1;fixedSize=1;" parent="1" vertex="1">
                    <mxGeometry x="228.76999999999998" y="760" width="367.49" height="60" as="geometry"/>
                </mxCell>
                <mxCell id="FmNaZ-GWL36y1u5ZB01I-44" value="สิ้นสุด" style="ellipse;whiteSpace=wrap;html=1;" parent="1" vertex="1">
                    <mxGeometry x="365" y="870" width="95" height="40" as="geometry"/>
                </mxCell>
            </root>
        </mxGraphModel>
    </diagram>
</mxfile>